REM DIRINDEX 1\2,1\3,1\4,1\5
REM DIRNAME "folder01","folder02","folder03","folder04","folder05"
TITLE ""
FILE "1Q_t_0510-0519.mp3" MP3
  TRACK 01 AUDIO
    TITLE "0:"
    INDEX 01 00:00:00
  TRACK 02 AUDIO
    TITLE "3:cjc172_2462"
    INDEX 01 00:00:08
  TRACK 03 AUDIO
    TITLE "0:"
    INDEX 01 00:01:23
  TRACK 04 AUDIO
    TITLE "4:cjc172_2463"
    INDEX 01 00:01:39
  TRACK 05 AUDIO
    TITLE "0:"
    INDEX 01 00:03:07
  TRACK 06 AUDIO
    TITLE "5:cjc172_2464"
    INDEX 01 00:03:20
  TRACK 07 AUDIO
    TITLE "0:"
    INDEX 01 00:07:10
  TRACK 08 AUDIO
    TITLE "3:cjc172_2465"
    INDEX 01 00:07:61
  TRACK 09 AUDIO
    TITLE "0:"
    INDEX 01 00:09:07
  TRACK 10 AUDIO
    TITLE "4:cjc172_2466"
    INDEX 01 00:09:25
  TRACK 11 AUDIO
    TITLE "0:"
    INDEX 01 00:12:08
  TRACK 12 AUDIO
    TITLE "5:cjc172_2467"
    INDEX 01 00:12:23
  TRACK 13 AUDIO
    TITLE "0:"
    INDEX 01 00:16:62
  TRACK 14 AUDIO
    TITLE "3:cjc172_2468"
    INDEX 01 00:17:40
  TRACK 15 AUDIO
    TITLE "0:"
    INDEX 01 00:18:42
  TRACK 16 AUDIO
    TITLE "4:cjc172_2469"
    INDEX 01 00:18:57
  TRACK 17 AUDIO
    TITLE "0:"
    INDEX 01 00:20:17
  TRACK 18 AUDIO
    TITLE "5:cjc172_2470"
    INDEX 01 00:20:31
  TRACK 19 AUDIO
    TITLE "0:"
    INDEX 01 00:26:12
  TRACK 20 AUDIO
    TITLE "3:cjc172_2471"
    INDEX 01 00:26:66
  TRACK 21 AUDIO
    TITLE "0:"
    INDEX 01 00:28:03
  TRACK 22 AUDIO
    TITLE "4:cjc172_2472"
    INDEX 01 00:28:18
  TRACK 23 AUDIO
    TITLE "0:"
    INDEX 01 00:30:17
  TRACK 24 AUDIO
    TITLE "5:cjc172_2473"
    INDEX 01 00:30:33
  TRACK 25 AUDIO
    TITLE "0:"
    INDEX 01 00:35:20
  TRACK 26 AUDIO
    TITLE "3:cjc172_2474"
    INDEX 01 00:35:71
  TRACK 27 AUDIO
    TITLE "0:"
    INDEX 01 00:37:09
  TRACK 28 AUDIO
    TITLE "4:cjc172_2475"
    INDEX 01 00:37:25
  TRACK 29 AUDIO
    TITLE "0:"
    INDEX 01 00:38:70
  TRACK 30 AUDIO
    TITLE "5:cjc172_2476"
    INDEX 01 00:39:10
  TRACK 31 AUDIO
    TITLE "0:"
    INDEX 01 00:42:64
  TRACK 32 AUDIO
    TITLE "3:cjc172_2477"
    INDEX 01 00:43:41
  TRACK 33 AUDIO
    TITLE "0:"
    INDEX 01 00:44:53
  TRACK 34 AUDIO
    TITLE "4:cjc172_2478"
    INDEX 01 00:44:66
  TRACK 35 AUDIO
    TITLE "0:"
    INDEX 01 00:46:75
  TRACK 36 AUDIO
    TITLE "5:cjc172_2479"
    INDEX 01 00:47:14
  TRACK 37 AUDIO
    TITLE "0:"
    INDEX 01 00:50:61
  TRACK 38 AUDIO
    TITLE "3:cjc172_2480"
    INDEX 01 00:51:39
  TRACK 39 AUDIO
    TITLE "0:"
    INDEX 01 00:52:60
  TRACK 40 AUDIO
    TITLE "4:cjc172_2481"
    INDEX 01 00:52:74
  TRACK 41 AUDIO
    TITLE "0:"
    INDEX 01 00:54:22
  TRACK 42 AUDIO
    TITLE "5:cjc172_2482"
    INDEX 01 00:54:35
  TRACK 43 AUDIO
    TITLE "0:"
    INDEX 01 00:59:11
  TRACK 44 AUDIO
    TITLE "3:cjc172_2483"
    INDEX 01 00:59:66
  TRACK 45 AUDIO
    TITLE "0:"
    INDEX 01 01:01:10
  TRACK 46 AUDIO
    TITLE "4:cjc172_2484"
    INDEX 01 01:01:28
  TRACK 47 AUDIO
    TITLE "0:"
    INDEX 01 01:03:58
  TRACK 48 AUDIO
    TITLE "5:cjc172_2485"
    INDEX 01 01:04:01
  TRACK 49 AUDIO
    TITLE "0:"
    INDEX 01 01:09:37
  TRACK 50 AUDIO
    TITLE "3:cjc172_2486"
    INDEX 01 01:10:15
  TRACK 51 AUDIO
    TITLE "0:"
    INDEX 01 01:11:36
  TRACK 52 AUDIO
    TITLE "4:cjc172_2487"
    INDEX 01 01:11:52
  TRACK 53 AUDIO
    TITLE "0:"
    INDEX 01 01:17:25
  TRACK 54 AUDIO
    TITLE "5:cjc172_2488"
    INDEX 01 01:17:40
  TRACK 55 AUDIO
    TITLE "0:"
    INDEX 01 01:22:63
  TRACK 56 AUDIO
    TITLE "3:cjc172_2489"
    INDEX 01 01:23:39
  TRACK 57 AUDIO
    TITLE "0:"
    INDEX 01 01:24:46
  TRACK 58 AUDIO
    TITLE "4:cjc172_2490"
    INDEX 01 01:24:64
  TRACK 59 AUDIO
    TITLE "0:"
    INDEX 01 01:27:21
  TRACK 60 AUDIO
    TITLE "5:cjc172_2491"
    INDEX 01 01:27:35
  TRACK 61 AUDIO
    TITLE "0:"
    INDEX 01 01:32:30
